<?xml version="1.0" standalone="no"?><!DOCTYPE svg PUBLIC "-//W3C//DTD SVG 1.1//EN" "http://www.w3.org/Graphics/SVG/1.1/DTD/svg11.dtd"><svg t="1574179149574" class="icon" viewBox="0 0 1024 1024" version="1.1" xmlns="http://www.w3.org/2000/svg" p-id="7567" width="32" height="32" xmlns:xlink="http://www.w3.org/1999/xlink"><defs><style type="text/css"></style></defs><path d="M938.666667 412.586667a42.666667 42.666667 0 0 0-36.693334-28.586667l-242.773333-35.413333L550.4 128a42.666667 42.666667 0 0 0-76.8 0L364.8 348.16 122.026667 384a42.666667 42.666667 0 0 0-34.56 29.013333 42.666667 42.666667 0 0 0 10.666666 42.666667l176.213334 170.666667-42.666667 242.346666a42.666667 42.666667 0 0 0 17.066667 42.666667 42.666667 42.666667 0 0 0 44.8 2.986667L512 800.426667l217.6 114.346666a39.68 39.68 0 0 0 19.626667 5.12 42.666667 42.666667 0 0 0 25.173333-8.106666 42.666667 42.666667 0 0 0 17.066667-42.666667l-42.666667-242.346667 176.213333-170.666666A42.666667 42.666667 0 0 0 938.666667 412.586667z m-262.4 170.666666a42.666667 42.666667 0 0 0-12.373334 37.973334l30.72 178.773333-160.426666-85.333333a42.666667 42.666667 0 0 0-40.106667 0l-160.426667 85.333333 30.72-178.773333a42.666667 42.666667 0 0 0-12.373333-37.973334l-128-128 179.626667-26.026666a42.666667 42.666667 0 0 0 32.426666-23.466667L512 243.2l80.213333 162.986667a42.666667 42.666667 0 0 0 32.426667 23.466666l179.626667 26.026667z" p-id="7568" fill="#bfbfbf"></path></svg>